<svg xmlns="http://www.w3.org/2000/svg" viewBox="0 0 74.31 46"><defs><style>.cls-1{fill:#ef1b2b;}.cls-2{fill:#f66;}.cls-3{fill:#03060a;}.cls-4{fill:#8b8e95;}</style></defs><title>Asset 30</title><g id="Layer_2" data-name="Layer 2"><g id="Layer_1-2" data-name="Layer 1"><path class="cls-1" d="M73.78,17.62C66.3,20.69,64.29,28.2,59.89,32.54a10.62,10.62,0,0,1-6.19,3.12,18.82,18.82,0,0,1-14.62-4.57.46.46,0,0,0-.7.58,17.51,17.51,0,0,0,2,2.95C46.61,42,56.24,40,56.69,39.87c0,0,0,0,0,0l-.18.13-.08,0a39.07,39.07,0,0,1-4.08,2.52h0l-.06,0a30.16,30.16,0,0,1-4.34,1.91h0A25.28,25.28,0,0,1,40.08,46a1.41,1.41,0,0,1-1.43-1.66,5.63,5.63,0,0,0,.14-1.3,5.79,5.79,0,0,0,0-.72,5.47,5.47,0,0,0-.26-1.2l0-.06L37,36.34,33.28,24.07a3.71,3.71,0,0,1,0-2.14l5.21-17a5.77,5.77,0,0,0,.26-1.22.17.17,0,0,0,0-.07,2.12,2.12,0,0,0,0-.24c0-.14,0-.27,0-.41a5.72,5.72,0,0,0-.14-1.31A1.33,1.33,0,0,1,38.93.52a1.47,1.47,0,0,1,1-.51h1.54A15.58,15.58,0,0,1,46,.87h0a14.24,14.24,0,0,1,1.45.6,16,16,0,0,1,2,1.14c.19.14.39.27.58.42l.27.21a19.73,19.73,0,0,1,4.41,5C59.58,15.89,63.3,15,63.3,15a11.05,11.05,0,0,1-5.22,2.86,10.61,10.61,0,0,1-5.31-.26,19.67,19.67,0,0,1-6.55-3.69c-1.59-1.28-2.32,0-2.3,1.09a15.68,15.68,0,0,0,5.37,10.91c5,4.39,9.14-2.72,10.17-3.87.85-.94,3.74-4.2,6.94-5.39h0a7,7,0,0,1,2.09-.44c4-.11,5.29,1.44,5.29,1.44"/><path class="cls-2" d="M60.23,9.05a15.52,15.52,0,0,1,2.15-1c1-.33,1.24,0,2.92,1.41a3.43,3.43,0,0,0,3.3.8s-2.06,2.21-4.42,2-4-3.25-4-3.25"/><path class="cls-2" d="M70.31,23s.92-2.5,4-1A2.75,2.75,0,0,0,73,22.8a2.42,2.42,0,0,1-2.65.18"/><path class="cls-2" d="M59.67,38.66a4.37,4.37,0,0,0,1.53-2,4,4,0,0,1,3-2.77c1.56-.16,4.93-.74,4.93-.74A7.28,7.28,0,0,0,65.49,37c-.26.56-.51,1.5-2,1.41a25.67,25.67,0,0,0-3.83.22"/><path class="cls-2" d="M73.78,17.62C66.3,20.69,64.29,28.2,59.89,32.54a15.07,15.07,0,0,0,3.89-9.26c.47-5.55,2.62-6.65,2.62-6.65a6.46,6.46,0,0,1,2.09-.44c3.94-.12,5.29,1.43,5.29,1.43"/><path class="cls-3" d="M2.32,18.73,29.8.89a2.55,2.55,0,0,1,4,2.07,2.3,2.3,0,0,1-.13.79l0,.09L27.82,23h0l5.85,19.16,0,.1a2.24,2.24,0,0,1,.13.78A2.55,2.55,0,0,1,30,45.22l-.11-.07h0l-7.33-4.76L2.32,27.27a5.09,5.09,0,0,1,0-8.54"/><path class="cls-4" d="M24.11,35.13a7.31,7.31,0,0,0,3,8.24l2.73,1.77h0l.11.07a2.54,2.54,0,0,0,3.85-2,2.46,2.46,0,0,0-.12-1l0-.1L27.82,23Z"/><path class="cls-2" d="M63.29,15a11,11,0,0,1-5.21,2.86,6.63,6.63,0,0,1-5.7-4.62c-.92-2.73-.39-6.11-2.12-10a19.93,19.93,0,0,1,4.41,5C59.58,15.89,63.29,15,63.29,15"/></g></g></svg>