<svg xmlns="http://www.w3.org/2000/svg" viewBox="0 0 150 36"><defs><style>.cls-1{fill:#03060a;}.cls-2{fill:#fff;}</style></defs><title>Asset 18</title><g id="Layer_2" data-name="Layer 2"><g id="Layer_1-2" data-name="Layer 1"><path class="cls-1" d="M140,36H10A10,10,0,0,1,0,26V10A10,10,0,0,1,10,0H140a10,10,0,0,1,10,10V26a10,10,0,0,1-10,10"/><path class="cls-2" d="M137.6,16.36l-.57-.1a1,1,0,0,1-.75-.63l0-.05a1,1,0,0,1,.09-1l.35-.49a1,1,0,0,0-.1-1.26l-1-1a1,1,0,0,0-.71-.29.94.94,0,0,0-.56.18l-.46.32a1,1,0,0,1-1,.09l0,0a1,1,0,0,1-.62-.74l-.1-.6a1,1,0,0,0-1-.81h-1.49a1,1,0,0,0-1,.81l-.1.6a1,1,0,0,1-.62.74l0,0a1,1,0,0,1-1-.09l-.46-.32a.94.94,0,0,0-.57-.18,1,1,0,0,0-.7.29l-1,1a1,1,0,0,0-.1,1.26l.35.49a1,1,0,0,1,.09,1l0,.05a1,1,0,0,1-.75.63l-.57.1a1,1,0,0,0-.81,1v1.44a1,1,0,0,0,.81.95l.61.11a1,1,0,0,1,.74.62s0,0,0,0a1,1,0,0,1-.08,1l-.33.46a1,1,0,0,0,.1,1.26l1,1a1,1,0,0,0,.7.3,1,1,0,0,0,.57-.19L127,24a1,1,0,0,1,1-.09h0a1,1,0,0,1,.63.76l.09.57a1,1,0,0,0,1,.81h1.44a1,1,0,0,0,1-.81l.1-.57a1,1,0,0,1,.62-.76h0a1,1,0,0,1,1,.09l.48.34a1,1,0,0,0,.57.19,1,1,0,0,0,.7-.3l1-1a1,1,0,0,0,.1-1.26l-.33-.46a1,1,0,0,1-.08-1,.06.06,0,0,1,0,0,1,1,0,0,1,.74-.62l.61-.11a1,1,0,0,0,.8-.95V17.32a1,1,0,0,0-.8-1m-7.2,4.31A2.67,2.67,0,1,1,133.07,18a2.67,2.67,0,0,1-2.67,2.67"/></g></g></svg>