<svg xmlns="http://www.w3.org/2000/svg" xmlns:xlink="http://www.w3.org/1999/xlink" viewBox="0 0 36.63 24"><defs><style>.cls-1{fill:none;}.cls-2{clip-path:url(#clip-path);}.cls-3{fill:#00c289;}.cls-4{fill:#ef1b2b;}.cls-5{fill:#fff;}.cls-6{fill:#f5f5f5;}</style><clipPath id="clip-path"><path class="cls-1" d="M6.32,12a12,12,0,1,0,12-12,12,12,0,0,0-12,12"/></clipPath></defs><title>Asset 12</title><g id="Layer_2" data-name="Layer 2"><g id="Layer_1-2" data-name="Layer 1"><g class="cls-2"><path class="cls-3" d="M36.63,8H0V.63A.63.63,0,0,1,.63,0H36a.63.63,0,0,1,.63.63Z"/><path class="cls-4" d="M36,24H.63A.63.63,0,0,1,0,23.37V16H36.63v7.37A.63.63,0,0,1,36,24"/><rect class="cls-5" y="8" width="36.63" height="8"/><path class="cls-6" d="M.1,7.58h0a.1.1,0,0,0,.1-.1V7.26a.11.11,0,0,1,.1-.1H.72a.1.1,0,0,1,.1.1v.22a.1.1,0,0,0,.1.1h.82a.1.1,0,0,0,.1-.1V7.05a.1.1,0,0,0-.1-.1H1.33a.1.1,0,0,0-.1.1h0a.09.09,0,0,0,.1.1h.21a.11.11,0,0,1,.1.1h0a.1.1,0,0,1-.1.1H1.12a.1.1,0,0,1-.1-.1V7.05A.1.1,0,0,0,.93,7H.1a.1.1,0,0,0-.1.1v.43a.1.1,0,0,0,.1.1m.41,0h0a.11.11,0,0,0,.1-.1h0a.11.11,0,0,0-.1-.1h0a.11.11,0,0,0-.1.1h0a.11.11,0,0,0,.1.1M.1,6.74H2.56a.09.09,0,0,0,.1-.1h0a.1.1,0,0,0-.1-.1H.1a.1.1,0,0,0-.1.1H0a.09.09,0,0,0,.1.1m2.46.84H2.15a.1.1,0,0,1-.1-.1V7.05a.1.1,0,0,1,.1-.1h.62a.1.1,0,0,0,.1-.1V6.63a.1.1,0,0,1,.1-.1H3a.1.1,0,0,1,.1.1v.64a.09.09,0,0,0,.1.1h0a.09.09,0,0,0,.09-.1V6.63a.11.11,0,0,1,.1-.1h0a.11.11,0,0,1,.1.1v.64a.09.09,0,0,0,.1.1h0a.1.1,0,0,0,.1-.1V6.63a.1.1,0,0,1,.1-.1h0a.11.11,0,0,1,.1.1v.85a.11.11,0,0,1-.1.1H3a.1.1,0,0,1-.1-.1V7.26a.11.11,0,0,0-.1-.1H2.35a.11.11,0,0,0-.1.1h0a.1.1,0,0,0,.1.1h.21a.1.1,0,0,1,.1.1h0a.1.1,0,0,1-.1.1"/><path class="cls-6" d="M4.19,7.58h0a.1.1,0,0,0,.1-.1V7.26a.11.11,0,0,1,.1-.1h.41a.1.1,0,0,1,.1.1v.22a.11.11,0,0,0,.1.1h.82a.1.1,0,0,0,.1-.1V7.05a.1.1,0,0,0-.1-.1H5.42a.11.11,0,0,0-.1.1h0a.1.1,0,0,0,.1.1h.21a.1.1,0,0,1,.1.1h0a.09.09,0,0,1-.1.1H5.22a.09.09,0,0,1-.1-.1V7.05A.11.11,0,0,0,5,7H4.19a.11.11,0,0,0-.1.1v.43a.11.11,0,0,0,.1.1m.41,0h0a.11.11,0,0,0,.1-.1h0a.11.11,0,0,0-.1-.1h0a.11.11,0,0,0-.1.1h0a.11.11,0,0,0,.1.1m-.41-.84H6.65a.09.09,0,0,0,.1-.1h0a.1.1,0,0,0-.1-.1H4.19a.11.11,0,0,0-.1.1h0a.1.1,0,0,0,.1.1m2.46.84H6.24a.1.1,0,0,1-.1-.1V7.05a.1.1,0,0,1,.1-.1h.62a.1.1,0,0,0,.1-.1V6.63a.1.1,0,0,1,.1-.1h0a.1.1,0,0,1,.1.1v.64a.1.1,0,0,0,.1.1h0a.09.09,0,0,0,.1-.1V6.63a.1.1,0,0,1,.1-.1h0a.1.1,0,0,1,.1.1v.64a.1.1,0,0,0,.1.1h0a.1.1,0,0,0,.1-.1V6.63a.1.1,0,0,1,.1-.1h0a.1.1,0,0,1,.1.1v.85a.1.1,0,0,1-.1.1H7.06a.1.1,0,0,1-.1-.1V7.26a.11.11,0,0,0-.1-.1H6.45a.1.1,0,0,0-.1.1h0a.09.09,0,0,0,.1.1h.2a.1.1,0,0,1,.1.1h0a.1.1,0,0,1-.1.1"/><path class="cls-6" d="M8.29,7.58h0a.1.1,0,0,0,.1-.1V7.26a.11.11,0,0,1,.1-.1h.42a.1.1,0,0,1,.09.1v.22a.11.11,0,0,0,.1.1h.83a.11.11,0,0,0,.1-.1V7.05a.11.11,0,0,0-.1-.1H9.52a.1.1,0,0,0-.1.1h0a.09.09,0,0,0,.1.1h.21a.1.1,0,0,1,.09.1h0a.09.09,0,0,1-.09.1H9.31a.09.09,0,0,1-.1-.1V7.05a.11.11,0,0,0-.1-.1H8.29a.1.1,0,0,0-.1.1v.43a.1.1,0,0,0,.1.1m.41,0h0a.1.1,0,0,0,.1-.1h0a.1.1,0,0,0-.1-.1h0a.1.1,0,0,0-.1.1h0a.1.1,0,0,0,.1.1m-.41-.84h2.46a.1.1,0,0,0,.1-.1h0a.11.11,0,0,0-.1-.1H8.29a.1.1,0,0,0-.1.1h0a.09.09,0,0,0,.1.1m2.46.84h-.42a.11.11,0,0,1-.1-.1V7.05a.11.11,0,0,1,.1-.1H11a.09.09,0,0,0,.1-.1V6.63a.11.11,0,0,1,.1-.1h0a.11.11,0,0,1,.1.1v.64a.09.09,0,0,0,.09.1h0a.09.09,0,0,0,.1-.1V6.63a.11.11,0,0,1,.1-.1h0a.11.11,0,0,1,.1.1v.64a.09.09,0,0,0,.1.1h0a.09.09,0,0,0,.1-.1V6.63a.11.11,0,0,1,.1-.1h0a.11.11,0,0,1,.1.1v.85a.11.11,0,0,1-.1.1h-.83a.11.11,0,0,1-.1-.1V7.26a.1.1,0,0,0-.1-.1h-.41a.1.1,0,0,0-.1.1h0a.09.09,0,0,0,.1.1h.21a.11.11,0,0,1,.1.1h0a.11.11,0,0,1-.1.1"/><path class="cls-6" d="M12.38,7.58h0a.1.1,0,0,0,.1-.1V7.26a.11.11,0,0,1,.1-.1H13a.11.11,0,0,1,.1.1v.22a.1.1,0,0,0,.1.1H14a.1.1,0,0,0,.1-.1V7.05A.1.1,0,0,0,14,7H13.6a.1.1,0,0,0-.09.1h0a.09.09,0,0,0,.09.1h.21a.1.1,0,0,1,.1.1h0a.09.09,0,0,1-.1.1H13.4a.1.1,0,0,1-.1-.1V7.05a.1.1,0,0,0-.1-.1h-.82a.1.1,0,0,0-.1.1v.43a.1.1,0,0,0,.1.1m.41,0h0a.1.1,0,0,0,.1-.1h0a.1.1,0,0,0-.1-.1h0a.1.1,0,0,0-.1.1h0a.1.1,0,0,0,.1.1m-.41-.84h2.46a.1.1,0,0,0,.1-.1h0a.11.11,0,0,0-.1-.1H12.38a.1.1,0,0,0-.1.1h0a.09.09,0,0,0,.1.1m2.46.84h-.42a.11.11,0,0,1-.1-.1V7.05a.11.11,0,0,1,.1-.1h.63a.1.1,0,0,0,.1-.1V6.63a.1.1,0,0,1,.09-.1h0a.11.11,0,0,1,.1.1v.64a.09.09,0,0,0,.1.1h0a.09.09,0,0,0,.1-.1V6.63a.11.11,0,0,1,.1-.1h0a.11.11,0,0,1,.1.1v.64a.09.09,0,0,0,.1.1h0a.09.09,0,0,0,.1-.1V6.63a.11.11,0,0,1,.1-.1h0a.11.11,0,0,1,.1.1v.85a.11.11,0,0,1-.1.1h-.83a.11.11,0,0,1-.1-.1V7.26a.1.1,0,0,0-.09-.1h-.42a.1.1,0,0,0-.1.1h0a.09.09,0,0,0,.1.1h.21a.11.11,0,0,1,.1.1h0a.11.11,0,0,1-.1.1"/><path class="cls-6" d="M16.47,7.58h0a.11.11,0,0,0,.1-.1V7.26a.1.1,0,0,1,.09-.1h.42a.11.11,0,0,1,.1.1v.22a.1.1,0,0,0,.1.1h.82a.1.1,0,0,0,.1-.1V7.05a.1.1,0,0,0-.1-.1H17.7a.1.1,0,0,0-.1.1h0a.09.09,0,0,0,.1.1h.21a.11.11,0,0,1,.1.1h0a.1.1,0,0,1-.1.1H17.5a.09.09,0,0,1-.1-.1V7.05a.11.11,0,0,0-.1-.1h-.83a.11.11,0,0,0-.1.1v.43a.11.11,0,0,0,.1.1m.41,0h0a.1.1,0,0,0,.1-.1h0a.1.1,0,0,0-.1-.1h0a.11.11,0,0,0-.1.1h0a.11.11,0,0,0,.1.1m-.41-.84h2.46a.09.09,0,0,0,.1-.1h0a.1.1,0,0,0-.1-.1H16.47a.11.11,0,0,0-.1.1h0a.1.1,0,0,0,.1.1m2.46.84h-.41a.1.1,0,0,1-.1-.1V7.05a.1.1,0,0,1,.1-.1h.62a.1.1,0,0,0,.1-.1V6.63a.1.1,0,0,1,.1-.1h0a.1.1,0,0,1,.1.1v.64a.1.1,0,0,0,.1.1h0a.1.1,0,0,0,.1-.1V6.63a.1.1,0,0,1,.1-.1h0a.1.1,0,0,1,.1.1v.64a.09.09,0,0,0,.1.1h0a.09.09,0,0,0,.1-.1V6.63a.11.11,0,0,1,.1-.1h0a.11.11,0,0,1,.1.1v.85a.11.11,0,0,1-.1.1h-.82a.1.1,0,0,1-.1-.1V7.26a.11.11,0,0,0-.1-.1h-.42a.11.11,0,0,0-.1.1h0a.1.1,0,0,0,.1.1h.21a.1.1,0,0,1,.1.1h0a.1.1,0,0,1-.1.1"/><path class="cls-6" d="M20.56,7.58h0a.11.11,0,0,0,.1-.1V7.26a.1.1,0,0,1,.1-.1h.41a.1.1,0,0,1,.1.1v.22a.1.1,0,0,0,.1.1h.83a.1.1,0,0,0,.09-.1V7.05a.1.1,0,0,0-.09-.1h-.42a.11.11,0,0,0-.1.1h0a.1.1,0,0,0,.1.1H22a.11.11,0,0,1,.1.1h0a.1.1,0,0,1-.1.1h-.41a.09.09,0,0,1-.1-.1V7.05a.11.11,0,0,0-.1-.1h-.83a.11.11,0,0,0-.1.1v.43a.11.11,0,0,0,.1.1m.41,0h0a.11.11,0,0,0,.1-.1h0a.11.11,0,0,0-.1-.1h0a.11.11,0,0,0-.1.1h0a.11.11,0,0,0,.1.1m-.41-.84H23a.09.09,0,0,0,.09-.1h0a.1.1,0,0,0-.09-.1H20.56a.11.11,0,0,0-.1.1h0a.1.1,0,0,0,.1.1M23,7.58h-.42a.11.11,0,0,1-.1-.1V7.05a.11.11,0,0,1,.1-.1h.62a.1.1,0,0,0,.1-.1V6.63a.1.1,0,0,1,.1-.1h0a.1.1,0,0,1,.1.1v.64a.1.1,0,0,0,.1.1h0a.1.1,0,0,0,.1-.1V6.63a.1.1,0,0,1,.1-.1h0a.1.1,0,0,1,.1.1v.64a.1.1,0,0,0,.1.1h0a.1.1,0,0,0,.1-.1V6.63a.1.1,0,0,1,.1-.1h0a.1.1,0,0,1,.1.1v.85a.1.1,0,0,1-.1.1h-.82a.1.1,0,0,1-.1-.1V7.26a.11.11,0,0,0-.1-.1h-.42a.11.11,0,0,0-.1.1h0a.1.1,0,0,0,.1.1H23a.1.1,0,0,1,.09.1h0a.1.1,0,0,1-.09.1"/><path class="cls-6" d="M24.65,7.58h0a.1.1,0,0,0,.1-.1V7.26a.1.1,0,0,1,.1-.1h.42a.11.11,0,0,1,.1.1v.22a.1.1,0,0,0,.09.1h.83a.11.11,0,0,0,.1-.1V7.05a.11.11,0,0,0-.1-.1h-.42a.11.11,0,0,0-.1.1h0a.1.1,0,0,0,.1.1h.22a.11.11,0,0,1,.1.1h0a.1.1,0,0,1-.1.1h-.42a.09.09,0,0,1-.1-.1V7.05a.11.11,0,0,0-.1-.1h-.83a.1.1,0,0,0-.09.1v.43a.09.09,0,0,0,.09.1m.41,0h0a.1.1,0,0,0,.1-.1h0a.1.1,0,0,0-.1-.1h0a.11.11,0,0,0-.1.1h0a.11.11,0,0,0,.1.1m-.41-.84h2.47a.1.1,0,0,0,.1-.1h0a.11.11,0,0,0-.1-.1H24.65a.11.11,0,0,0-.1.1h0a.1.1,0,0,0,.1.1m2.47.84H26.7a.11.11,0,0,1-.1-.1V7.05a.11.11,0,0,1,.1-.1h.62a.09.09,0,0,0,.1-.1V6.63a.11.11,0,0,1,.1-.1h0a.11.11,0,0,1,.1.1v.64a.09.09,0,0,0,.09.1h0a.09.09,0,0,0,.1-.1V6.63a.1.1,0,0,1,.1-.1h0a.1.1,0,0,1,.1.1v.64a.1.1,0,0,0,.1.1h0a.09.09,0,0,0,.1-.1V6.63a.11.11,0,0,1,.1-.1h0a.1.1,0,0,1,.1.1v.85a.1.1,0,0,1-.1.1h-.82a.11.11,0,0,1-.1-.1V7.26a.1.1,0,0,0-.1-.1h-.41a.11.11,0,0,0-.1.1h0a.1.1,0,0,0,.1.1h.21a.11.11,0,0,1,.1.1h0a.11.11,0,0,1-.1.1"/><path class="cls-6" d="M28.75,7.58h0a.1.1,0,0,0,.1-.1V7.26a.11.11,0,0,1,.1-.1h.41a.1.1,0,0,1,.1.1v.22a.11.11,0,0,0,.1.1h.83a.11.11,0,0,0,.1-.1V7.05a.11.11,0,0,0-.1-.1H30a.1.1,0,0,0-.1.1h0a.09.09,0,0,0,.1.1h.21a.11.11,0,0,1,.1.1h0a.1.1,0,0,1-.1.1h-.42a.1.1,0,0,1-.1-.1V7.05a.1.1,0,0,0-.1-.1h-.82a.1.1,0,0,0-.1.1v.43a.1.1,0,0,0,.1.1m.41,0h0a.1.1,0,0,0,.1-.1h0a.1.1,0,0,0-.1-.1h0a.1.1,0,0,0-.1.1h0a.1.1,0,0,0,.1.1m-.41-.84h2.46a.09.09,0,0,0,.1-.1h0a.1.1,0,0,0-.1-.1H28.75a.1.1,0,0,0-.1.1h0a.09.09,0,0,0,.1.1m2.46.84H30.8a.1.1,0,0,1-.1-.1V7.05a.1.1,0,0,1,.1-.1h.61a.09.09,0,0,0,.1-.1V6.63a.11.11,0,0,1,.1-.1h0a.1.1,0,0,1,.1.1v.64a.09.09,0,0,0,.1.1h0a.09.09,0,0,0,.1-.1V6.63a.11.11,0,0,1,.1-.1h0a.11.11,0,0,1,.1.1v.64a.09.09,0,0,0,.1.1h0a.09.09,0,0,0,.1-.1V6.63a.11.11,0,0,1,.1-.1h0a.11.11,0,0,1,.1.1v.85a.11.11,0,0,1-.1.1h-.83a.11.11,0,0,1-.1-.1V7.26a.1.1,0,0,0-.1-.1H31a.1.1,0,0,0-.1.1h0a.09.09,0,0,0,.1.1h.21a.1.1,0,0,1,.1.1h0a.1.1,0,0,1-.1.1"/><path class="cls-6" d="M32.84,7.58h0a.11.11,0,0,0,.1-.1V7.26a.1.1,0,0,1,.1-.1h.41a.11.11,0,0,1,.1.1v.22a.1.1,0,0,0,.1.1h.82a.1.1,0,0,0,.1-.1V7.05a.1.1,0,0,0-.1-.1h-.41a.11.11,0,0,0-.1.1h0a.1.1,0,0,0,.1.1h.21a.1.1,0,0,1,.1.1h0a.09.09,0,0,1-.1.1h-.42a.1.1,0,0,1-.1-.1V7.05a.1.1,0,0,0-.1-.1h-.82a.11.11,0,0,0-.1.1v.43a.11.11,0,0,0,.1.1m.41,0h0a.1.1,0,0,0,.09-.1h0a.1.1,0,0,0-.09-.1h0a.11.11,0,0,0-.1.1h0a.11.11,0,0,0,.1.1m-.41-.84H35.3a.09.09,0,0,0,.1-.1h0a.1.1,0,0,0-.1-.1H32.84a.11.11,0,0,0-.1.1h0a.1.1,0,0,0,.1.1m2.46.84h-.41a.1.1,0,0,1-.1-.1V7.05a.1.1,0,0,1,.1-.1h.62a.09.09,0,0,0,.1-.1V6.63a.11.11,0,0,1,.1-.1h0a.11.11,0,0,1,.1.1v.64a.09.09,0,0,0,.1.1h0a.1.1,0,0,0,.1-.1V6.63a.1.1,0,0,1,.1-.1.11.11,0,0,1,.1.1v.64a.09.09,0,0,0,.1.1h0a.09.09,0,0,0,.1-.1V6.63a.11.11,0,0,1,.1-.1h0a.1.1,0,0,1,.1.1v.85a.1.1,0,0,1-.1.1h-.82a.11.11,0,0,1-.1-.1V7.26a.1.1,0,0,0-.1-.1h-.42a.11.11,0,0,0-.1.1h0a.1.1,0,0,0,.1.1h.21a.1.1,0,0,1,.1.1h0a.1.1,0,0,1-.1.1"/><path class="cls-6" d="M.1,8.21H1.74a.09.09,0,0,0,.1-.1V7.89a.1.1,0,0,0-.1-.1H.1a.1.1,0,0,0-.1.1v.22a.09.09,0,0,0,.1.1m2.05,0H3.79a.1.1,0,0,0,.1-.1V7.89a.11.11,0,0,0-.1-.1H2.15a.1.1,0,0,0-.1.1v.22a.09.09,0,0,0,.1.1"/><path class="cls-6" d="M4.19,8.21H5.83a.09.09,0,0,0,.1-.1V7.89a.1.1,0,0,0-.1-.1H4.19a.11.11,0,0,0-.1.1v.22a.1.1,0,0,0,.1.1m2.05,0H7.88a.09.09,0,0,0,.1-.1V7.89a.1.1,0,0,0-.1-.1H6.24a.1.1,0,0,0-.1.1v.22a.09.09,0,0,0,.1.1"/><path class="cls-6" d="M8.29,8.21H9.93a.1.1,0,0,0,.1-.1V7.89a.11.11,0,0,0-.1-.1H8.29a.1.1,0,0,0-.1.1v.22a.09.09,0,0,0,.1.1m2,0H12a.1.1,0,0,0,.1-.1V7.89a.11.11,0,0,0-.1-.1H10.33a.11.11,0,0,0-.1.1v.22a.1.1,0,0,0,.1.1"/><path class="cls-6" d="M12.38,8.21H14a.09.09,0,0,0,.1-.1V7.89a.1.1,0,0,0-.1-.1H12.38a.1.1,0,0,0-.1.1v.22a.09.09,0,0,0,.1.1m2,0h1.65a.1.1,0,0,0,.1-.1V7.89a.11.11,0,0,0-.1-.1H14.42a.11.11,0,0,0-.1.1v.22a.1.1,0,0,0,.1.1"/><path class="cls-6" d="M16.47,8.21h1.64a.09.09,0,0,0,.1-.1V7.89a.1.1,0,0,0-.1-.1H16.47a.11.11,0,0,0-.1.1v.22a.1.1,0,0,0,.1.1m2.05,0h1.64a.1.1,0,0,0,.1-.1V7.89a.11.11,0,0,0-.1-.1H18.52a.1.1,0,0,0-.1.1v.22a.09.09,0,0,0,.1.1"/><path class="cls-6" d="M20.56,8.21H22.2a.09.09,0,0,0,.1-.1V7.89a.1.1,0,0,0-.1-.1H20.56a.11.11,0,0,0-.1.1v.22a.1.1,0,0,0,.1.1m2.05,0h1.64a.09.09,0,0,0,.1-.1V7.89a.1.1,0,0,0-.1-.1H22.61a.11.11,0,0,0-.1.1v.22a.1.1,0,0,0,.1.1"/><path class="cls-6" d="M24.65,8.21H26.3a.1.1,0,0,0,.1-.1V7.89a.11.11,0,0,0-.1-.1H24.65a.1.1,0,0,0-.09.1v.22a.09.09,0,0,0,.09.1m2.05,0h1.64a.09.09,0,0,0,.1-.1V7.89a.1.1,0,0,0-.1-.1H26.7a.11.11,0,0,0-.1.1v.22a.1.1,0,0,0,.1.1"/><path class="cls-6" d="M28.75,8.21h1.64a.1.1,0,0,0,.1-.1V7.89a.11.11,0,0,0-.1-.1H28.75a.1.1,0,0,0-.1.1v.22a.09.09,0,0,0,.1.1m2,0h1.65a.1.1,0,0,0,.1-.1V7.89a.11.11,0,0,0-.1-.1H30.79a.11.11,0,0,0-.1.1v.22a.1.1,0,0,0,.1.1"/><path class="cls-6" d="M32.84,8.21h1.64a.09.09,0,0,0,.1-.1V7.89a.1.1,0,0,0-.1-.1H32.84a.11.11,0,0,0-.1.1v.22a.1.1,0,0,0,.1.1m2,0h1.64a.09.09,0,0,0,.1-.1V7.89a.1.1,0,0,0-.1-.1H34.89a.1.1,0,0,0-.1.1v.22a.09.09,0,0,0,.1.1"/><path class="cls-6" d="M36.53,16.42h0a.1.1,0,0,0-.1.1v.22a.11.11,0,0,1-.1.1h-.42a.11.11,0,0,1-.1-.1v-.22a.1.1,0,0,0-.1-.1h-.82a.1.1,0,0,0-.1.1V17a.1.1,0,0,0,.1.1h.41a.1.1,0,0,0,.1-.1h0a.09.09,0,0,0-.1-.1h-.21a.11.11,0,0,1-.1-.1h0a.1.1,0,0,1,.1-.1h.42a.1.1,0,0,1,.1.1V17a.1.1,0,0,0,.1.1h.82a.1.1,0,0,0,.1-.1v-.43a.1.1,0,0,0-.1-.1m-.41,0h0a.1.1,0,0,0-.1.1h0a.1.1,0,0,0,.1.1h0a.1.1,0,0,0,.1-.1h0a.1.1,0,0,0-.1-.1m.41.84H34.07a.09.09,0,0,0-.1.1h0a.1.1,0,0,0,.1.1h2.46a.1.1,0,0,0,.1-.1h0a.09.09,0,0,0-.1-.1m-2.46-.84h.41a.1.1,0,0,1,.1.1V17a.1.1,0,0,1-.1.1h-.62a.09.09,0,0,0-.09.1v.22a.11.11,0,0,1-.1.1h0a.11.11,0,0,1-.1-.1v-.64a.09.09,0,0,0-.1-.1h0a.09.09,0,0,0-.1.1v.64a.11.11,0,0,1-.1.1h0a.11.11,0,0,1-.1-.1v-.64a.09.09,0,0,0-.1-.1h0a.09.09,0,0,0-.1.1v.64a.11.11,0,0,1-.1.1h0a.11.11,0,0,1-.1-.1v-.85a.11.11,0,0,1,.1-.1h.83a.11.11,0,0,1,.1.1v.22a.1.1,0,0,0,.09.1h.42a.11.11,0,0,0,.1-.1h0a.1.1,0,0,0-.1-.1h-.21a.1.1,0,0,1-.1-.1h0a.1.1,0,0,1,.1-.1"/><path class="cls-6" d="M32.44,16.42h0a.1.1,0,0,0-.1.1v.22a.1.1,0,0,1-.1.1h-.41a.1.1,0,0,1-.1-.1v-.22a.1.1,0,0,0-.1-.1H30.8a.1.1,0,0,0-.1.1V17a.1.1,0,0,0,.1.1h.41a.1.1,0,0,0,.1-.1h0a.09.09,0,0,0-.1-.1H31a.11.11,0,0,1-.1-.1h0a.1.1,0,0,1,.1-.1h.42a.1.1,0,0,1,.1.1V17a.1.1,0,0,0,.09.1h.83a.11.11,0,0,0,.1-.1v-.43a.11.11,0,0,0-.1-.1m-.41,0h0a.11.11,0,0,0-.1.1h0a.11.11,0,0,0,.1.1h0a.11.11,0,0,0,.1-.1h0a.11.11,0,0,0-.1-.1m.41.84H30a.09.09,0,0,0-.1.1h0a.1.1,0,0,0,.1.1h2.46a.11.11,0,0,0,.1-.1h0a.1.1,0,0,0-.1-.1M30,16.42h.41a.1.1,0,0,1,.1.1V17a.1.1,0,0,1-.1.1h-.61a.09.09,0,0,0-.1.1v.22a.11.11,0,0,1-.1.1h0a.1.1,0,0,1-.1-.1v-.64a.1.1,0,0,0-.1-.1h0a.1.1,0,0,0-.1.1v.64a.1.1,0,0,1-.1.1h0a.1.1,0,0,1-.1-.1v-.64a.09.09,0,0,0-.1-.1h0a.1.1,0,0,0-.1.1v.64a.1.1,0,0,1-.1.1h0a.1.1,0,0,1-.1-.1v-.85a.1.1,0,0,1,.1-.1h.83a.11.11,0,0,1,.1.1v.22a.1.1,0,0,0,.1.1h.41a.11.11,0,0,0,.1-.1h0a.1.1,0,0,0-.1-.1H30a.1.1,0,0,1-.1-.1h0a.1.1,0,0,1,.1-.1"/><path class="cls-6" d="M28.35,16.42h0a.1.1,0,0,0-.1.1v.22a.1.1,0,0,1-.1.1h-.41a.1.1,0,0,1-.1-.1v-.22a.11.11,0,0,0-.1-.1H26.7a.11.11,0,0,0-.1.1V17a.11.11,0,0,0,.1.1h.42a.11.11,0,0,0,.1-.1h0a.1.1,0,0,0-.1-.1h-.21a.1.1,0,0,1-.1-.1h0a.09.09,0,0,1,.1-.1h.41a.09.09,0,0,1,.1.1V17a.11.11,0,0,0,.1.1h.83a.1.1,0,0,0,.09-.1v-.43a.09.09,0,0,0-.09-.1m-.41,0h0a.11.11,0,0,0-.1.1h0a.11.11,0,0,0,.1.1h0a.11.11,0,0,0,.1-.1h0a.11.11,0,0,0-.1-.1m.41.84H25.88a.1.1,0,0,0-.1.1h0a.11.11,0,0,0,.1.1h2.47a.11.11,0,0,0,.1-.1h0a.1.1,0,0,0-.1-.1m-2.47-.84h.42a.11.11,0,0,1,.1.1V17a.11.11,0,0,1-.1.1h-.62a.1.1,0,0,0-.1.1v.22a.1.1,0,0,1-.1.1h0a.1.1,0,0,1-.1-.1v-.64a.1.1,0,0,0-.1-.1h0a.09.09,0,0,0-.1.1v.64a.1.1,0,0,1-.1.1h0a.11.11,0,0,1-.1-.1v-.64a.09.09,0,0,0-.1-.1h0a.1.1,0,0,0-.1.1v.64a.1.1,0,0,1-.1.1h0a.1.1,0,0,1-.1-.1v-.85a.1.1,0,0,1,.1-.1h.82a.1.1,0,0,1,.1.1v.22a.11.11,0,0,0,.1.1h.41a.1.1,0,0,0,.1-.1h0a.09.09,0,0,0-.1-.1h-.21a.11.11,0,0,1-.1-.1h0a.11.11,0,0,1,.1-.1"/><path class="cls-6" d="M24.25,16.42h0a.1.1,0,0,0-.1.1v.22a.11.11,0,0,1-.1.1h-.41a.1.1,0,0,1-.1-.1v-.22a.11.11,0,0,0-.1-.1h-.83a.11.11,0,0,0-.1.1V17a.11.11,0,0,0,.1.1H23a.11.11,0,0,0,.1-.1h0a.1.1,0,0,0-.1-.1h-.21a.1.1,0,0,1-.1-.1h0a.09.09,0,0,1,.1-.1h.41a.09.09,0,0,1,.1.1V17a.11.11,0,0,0,.1.1h.82a.1.1,0,0,0,.1-.1v-.43a.1.1,0,0,0-.1-.1m-.4,0h0a.1.1,0,0,0-.1.1h0a.1.1,0,0,0,.1.1h0a.1.1,0,0,0,.09-.1h0a.1.1,0,0,0-.09-.1m.4.84H21.79a.1.1,0,0,0-.1.1h0a.11.11,0,0,0,.1.1h2.46a.1.1,0,0,0,.1-.1h0a.09.09,0,0,0-.1-.1m-2.46-.84h.42a.1.1,0,0,1,.1.1V17a.1.1,0,0,1-.1.1h-.62a.09.09,0,0,0-.1.1v.22a.11.11,0,0,1-.1.1h0a.11.11,0,0,1-.1-.1v-.64a.09.09,0,0,0-.1-.1h0a.1.1,0,0,0-.1.1v.64a.1.1,0,0,1-.1.1h0a.11.11,0,0,1-.1-.1v-.64a.09.09,0,0,0-.1-.1h0a.09.09,0,0,0-.1.1v.64a.1.1,0,0,1-.1.1h0a.1.1,0,0,1-.09-.1v-.85a.1.1,0,0,1,.09-.1h.83a.11.11,0,0,1,.1.1v.22a.1.1,0,0,0,.1.1H22a.1.1,0,0,0,.1-.1h0a.09.09,0,0,0-.1-.1h-.21a.11.11,0,0,1-.1-.1h0a.11.11,0,0,1,.1-.1"/><path class="cls-6" d="M20.16,16.42h0a.1.1,0,0,0-.1.1v.22a.11.11,0,0,1-.1.1h-.42a.11.11,0,0,1-.1-.1v-.22a.1.1,0,0,0-.1-.1h-.82a.1.1,0,0,0-.1.1V17a.1.1,0,0,0,.1.1h.42A.1.1,0,0,0,19,17h0a.09.09,0,0,0-.09-.1h-.22a.11.11,0,0,1-.1-.1h0a.1.1,0,0,1,.1-.1h.42a.1.1,0,0,1,.1.1V17a.1.1,0,0,0,.1.1h.82a.1.1,0,0,0,.1-.1v-.43a.1.1,0,0,0-.1-.1m-.41,0h0a.1.1,0,0,0-.1.1h0a.1.1,0,0,0,.1.1h0a.11.11,0,0,0,.1-.1h0a.11.11,0,0,0-.1-.1m.41.84H17.7a.09.09,0,0,0-.1.1h0a.1.1,0,0,0,.1.1h2.46a.1.1,0,0,0,.1-.1h0a.09.09,0,0,0-.1-.1m-2.46-.84h.42a.11.11,0,0,1,.1.1V17a.11.11,0,0,1-.1.1h-.63a.1.1,0,0,0-.1.1v.22a.1.1,0,0,1-.09.1h0a.11.11,0,0,1-.1-.1v-.64a.09.09,0,0,0-.1-.1h0a.09.09,0,0,0-.1.1v.64a.11.11,0,0,1-.1.1h0a.11.11,0,0,1-.1-.1v-.64a.09.09,0,0,0-.1-.1h0a.09.09,0,0,0-.1.1v.64a.11.11,0,0,1-.1.1h0a.11.11,0,0,1-.1-.1v-.85a.11.11,0,0,1,.1-.1h.83a.1.1,0,0,1,.09.1v.22a.11.11,0,0,0,.1.1h.42a.1.1,0,0,0,.1-.1h0a.09.09,0,0,0-.1-.1H17.7a.1.1,0,0,1-.1-.1h0a.1.1,0,0,1,.1-.1"/><path class="cls-6" d="M16.07,16.42h0a.11.11,0,0,0-.1.1v.22a.1.1,0,0,1-.1.1h-.41a.11.11,0,0,1-.1-.1v-.22a.1.1,0,0,0-.1-.1h-.82a.1.1,0,0,0-.1.1V17a.1.1,0,0,0,.1.1h.41a.1.1,0,0,0,.1-.1h0a.09.09,0,0,0-.1-.1h-.21a.11.11,0,0,1-.1-.1h0a.1.1,0,0,1,.1-.1H15a.09.09,0,0,1,.1.1V17a.11.11,0,0,0,.1.1h.83a.11.11,0,0,0,.1-.1v-.43a.11.11,0,0,0-.1-.1m-.41,0h0a.1.1,0,0,0-.09.1h0a.1.1,0,0,0,.09.1h0a.11.11,0,0,0,.1-.1h0a.11.11,0,0,0-.1-.1m.41.84H13.61a.09.09,0,0,0-.1.1h0a.1.1,0,0,0,.1.1h2.46a.11.11,0,0,0,.1-.1h0a.1.1,0,0,0-.1-.1m-2.46-.84H14a.1.1,0,0,1,.1.1V17a.1.1,0,0,1-.1.1H13.4a.1.1,0,0,0-.1.1v.22a.1.1,0,0,1-.1.1h0a.1.1,0,0,1-.1-.1v-.64a.1.1,0,0,0-.1-.1h0a.1.1,0,0,0-.1.1v.64a.1.1,0,0,1-.1.1h0a.1.1,0,0,1-.1-.1v-.64a.09.09,0,0,0-.1-.1h0a.09.09,0,0,0-.09.1v.64a.11.11,0,0,1-.1.1h0a.11.11,0,0,1-.1-.1v-.85a.11.11,0,0,1,.1-.1h.82a.1.1,0,0,1,.1.1v.22a.11.11,0,0,0,.1.1h.42a.11.11,0,0,0,.1-.1h0a.1.1,0,0,0-.1-.1h-.21a.1.1,0,0,1-.1-.1h0a.1.1,0,0,1,.1-.1"/><path class="cls-6" d="M12,16.42h0a.11.11,0,0,0-.1.1v.22a.1.1,0,0,1-.1.1h-.41a.1.1,0,0,1-.1-.1v-.22a.11.11,0,0,0-.1-.1h-.83a.1.1,0,0,0-.09.1V17a.1.1,0,0,0,.09.1h.42a.11.11,0,0,0,.1-.1h0a.1.1,0,0,0-.1-.1h-.21a.1.1,0,0,1-.1-.1h0a.09.09,0,0,1,.1-.1H11a.1.1,0,0,1,.1.1V17a.1.1,0,0,0,.09.1H12a.11.11,0,0,0,.1-.1v-.43a.11.11,0,0,0-.1-.1m-.41,0h0a.11.11,0,0,0-.1.1h0a.11.11,0,0,0,.1.1h0a.11.11,0,0,0,.1-.1h0a.11.11,0,0,0-.1-.1m.41.84H9.51a.09.09,0,0,0-.09.1h0a.1.1,0,0,0,.09.1H12a.11.11,0,0,0,.1-.1h0a.1.1,0,0,0-.1-.1m-2.47-.84h.42a.11.11,0,0,1,.1.1V17a.11.11,0,0,1-.1.1H9.31a.1.1,0,0,0-.1.1v.22a.1.1,0,0,1-.1.1h0a.1.1,0,0,1-.1-.1v-.64a.1.1,0,0,0-.1-.1h0a.1.1,0,0,0-.1.1v.64a.1.1,0,0,1-.1.1h0a.1.1,0,0,1-.1-.1v-.64a.1.1,0,0,0-.1-.1h0a.1.1,0,0,0-.1.1v.64a.1.1,0,0,1-.1.1h0a.1.1,0,0,1-.1-.1v-.85a.1.1,0,0,1,.1-.1h.82a.1.1,0,0,1,.1.1v.22a.11.11,0,0,0,.1.1h.41a.1.1,0,0,0,.1-.1h0a.09.09,0,0,0-.1-.1H9.51a.11.11,0,0,1-.1-.1h0a.12.12,0,0,1,.1-.1"/><path class="cls-6" d="M7.88,16.42h0a.11.11,0,0,0-.1.1v.22a.1.1,0,0,1-.1.1H7.27a.1.1,0,0,1-.1-.1v-.22a.11.11,0,0,0-.1-.1H6.24a.11.11,0,0,0-.1.1V17a.11.11,0,0,0,.1.1h.41a.1.1,0,0,0,.1-.1h0a.09.09,0,0,0-.1-.1H6.44a.1.1,0,0,1-.09-.1h0a.09.09,0,0,1,.09-.1h.42a.09.09,0,0,1,.1.1V17a.11.11,0,0,0,.1.1h.82A.1.1,0,0,0,8,17v-.43a.1.1,0,0,0-.1-.1m-.41,0h0a.1.1,0,0,0-.1.1h0a.1.1,0,0,0,.1.1h0a.1.1,0,0,0,.1-.1h0a.1.1,0,0,0-.1-.1m.41.84H5.42a.09.09,0,0,0-.1.1h0a.1.1,0,0,0,.1.1H7.88a.1.1,0,0,0,.1-.1H8a.09.09,0,0,0-.1-.1m-2.46-.84h.42a.11.11,0,0,1,.1.1V17a.11.11,0,0,1-.1.1H5.22a.09.09,0,0,0-.1.1v.22a.11.11,0,0,1-.1.1H5a.11.11,0,0,1-.1-.1v-.64a.09.09,0,0,0-.1-.1h0a.09.09,0,0,0-.1.1v.64a.11.11,0,0,1-.1.1h0a.1.1,0,0,1-.1-.1v-.64a.1.1,0,0,0-.1-.1h0a.09.09,0,0,0-.1.1v.64a.11.11,0,0,1-.1.1h0a.11.11,0,0,1-.1-.1v-.85a.11.11,0,0,1,.1-.1H5a.11.11,0,0,1,.1.1v.22a.1.1,0,0,0,.1.1h.41a.1.1,0,0,0,.1-.1h0a.09.09,0,0,0-.1-.1H5.42a.1.1,0,0,1-.1-.1h0a.1.1,0,0,1,.1-.1"/><path class="cls-6" d="M3.79,16.42h0a.1.1,0,0,0-.1.1v.22a.11.11,0,0,1-.1.1H3.17a.11.11,0,0,1-.1-.1v-.22a.1.1,0,0,0-.1-.1H2.15a.1.1,0,0,0-.1.1V17a.1.1,0,0,0,.1.1h.41a.1.1,0,0,0,.1-.1h0a.09.09,0,0,0-.1-.1H2.35a.1.1,0,0,1-.1-.1h0a.09.09,0,0,1,.1-.1h.42a.1.1,0,0,1,.1.1V17a.1.1,0,0,0,.1.1h.82a.1.1,0,0,0,.1-.1v-.43a.1.1,0,0,0-.1-.1m-.41,0h0a.1.1,0,0,0-.1.1h0a.1.1,0,0,0,.1.1h0a.1.1,0,0,0,.1-.1h0a.1.1,0,0,0-.1-.1m.41.84H1.33a.1.1,0,0,0-.1.1h0a.11.11,0,0,0,.1.1H3.79a.1.1,0,0,0,.1-.1h0a.09.09,0,0,0-.1-.1m-2.46-.84h.41a.11.11,0,0,1,.11.1V17a.11.11,0,0,1-.11.1H1.12a.1.1,0,0,0-.1.1v.22a.1.1,0,0,1-.1.1h0a.11.11,0,0,1-.1-.1v-.64a.09.09,0,0,0-.1-.1h0a.1.1,0,0,0-.1.1v.64a.1.1,0,0,1-.1.1.11.11,0,0,1-.1-.1v-.64a.09.09,0,0,0-.09-.1h0a.09.09,0,0,0-.1.1v.64a.1.1,0,0,1-.1.1h0a.1.1,0,0,1-.1-.1v-.85a.1.1,0,0,1,.1-.1H.92a.1.1,0,0,1,.1.1v.22a.11.11,0,0,0,.1.1h.42a.1.1,0,0,0,.1-.1h0a.09.09,0,0,0-.1-.1H1.33a.11.11,0,0,1-.1-.1h0a.11.11,0,0,1,.1-.1"/><path class="cls-6" d="M36.53,15.79H34.89a.09.09,0,0,0-.1.1v.22a.1.1,0,0,0,.1.1h1.64a.1.1,0,0,0,.1-.1v-.22a.09.09,0,0,0-.1-.1m-2.05,0H32.84a.1.1,0,0,0-.1.1v.22a.11.11,0,0,0,.1.1h1.64a.1.1,0,0,0,.1-.1v-.22a.09.09,0,0,0-.1-.1"/><path class="cls-6" d="M32.44,15.79H30.8a.09.09,0,0,0-.1.1v.22a.1.1,0,0,0,.1.1h1.64a.11.11,0,0,0,.1-.1v-.22a.1.1,0,0,0-.1-.1m-2,0H28.75a.09.09,0,0,0-.1.1v.22a.1.1,0,0,0,.1.1h1.64a.1.1,0,0,0,.1-.1v-.22a.09.09,0,0,0-.1-.1"/><path class="cls-6" d="M28.35,15.79H26.7a.1.1,0,0,0-.1.1v.22a.11.11,0,0,0,.1.1h1.65a.11.11,0,0,0,.1-.1v-.22a.1.1,0,0,0-.1-.1m-2.05,0H24.66a.09.09,0,0,0-.1.1v.22a.1.1,0,0,0,.1.1H26.3a.11.11,0,0,0,.1-.1v-.22a.1.1,0,0,0-.1-.1"/><path class="cls-6" d="M24.25,15.79H22.61a.1.1,0,0,0-.1.1v.22a.11.11,0,0,0,.1.1h1.64a.1.1,0,0,0,.1-.1v-.22a.09.09,0,0,0-.1-.1m-2,0H20.56a.09.09,0,0,0-.09.1v.22a.1.1,0,0,0,.09.1h1.65a.1.1,0,0,0,.1-.1v-.22a.09.09,0,0,0-.1-.1"/><path class="cls-6" d="M20.16,15.79H18.52a.09.09,0,0,0-.1.1v.22a.1.1,0,0,0,.1.1h1.64a.1.1,0,0,0,.1-.1v-.22a.09.09,0,0,0-.1-.1m-2,0H16.47a.1.1,0,0,0-.1.1v.22a.11.11,0,0,0,.1.1h1.65a.11.11,0,0,0,.1-.1v-.22a.1.1,0,0,0-.1-.1"/><path class="cls-6" d="M16.07,15.79H14.43a.09.09,0,0,0-.1.1v.22a.1.1,0,0,0,.1.1h1.64a.11.11,0,0,0,.1-.1v-.22a.1.1,0,0,0-.1-.1m-2.05,0H12.38a.1.1,0,0,0-.1.1v.22a.11.11,0,0,0,.1.1H14a.1.1,0,0,0,.1-.1v-.22a.09.09,0,0,0-.1-.1"/><path class="cls-6" d="M12,15.79H10.34a.09.09,0,0,0-.1.1v.22a.1.1,0,0,0,.1.1H12a.11.11,0,0,0,.1-.1v-.22a.1.1,0,0,0-.1-.1m-2.05,0H8.29a.09.09,0,0,0-.1.1v.22a.1.1,0,0,0,.1.1H9.93a.11.11,0,0,0,.1-.1v-.22a.1.1,0,0,0-.1-.1"/><path class="cls-6" d="M7.88,15.79H6.24a.1.1,0,0,0-.1.1v.22a.11.11,0,0,0,.1.1H7.88a.1.1,0,0,0,.1-.1v-.22a.09.09,0,0,0-.1-.1m-2,0H4.19a.1.1,0,0,0-.1.1v.22a.11.11,0,0,0,.1.1H5.84a.11.11,0,0,0,.1-.1v-.22a.1.1,0,0,0-.1-.1"/><path class="cls-6" d="M3.79,15.79H2.15a.09.09,0,0,0-.1.1v.22a.1.1,0,0,0,.1.1H3.79a.1.1,0,0,0,.1-.1v-.22a.09.09,0,0,0-.1-.1m-2,0H.1a.1.1,0,0,0-.1.1v.22a.11.11,0,0,0,.1.1H1.75a.11.11,0,0,0,.1-.1v-.22a.1.1,0,0,0-.1-.1"/><path class="cls-4" d="M17.79,9a.55.55,0,0,0,.53-.14.55.55,0,0,0,.76,0,.54.54,0,0,0,.15-.52.63.63,0,0,1-.86.2l-.05,0a.64.64,0,0,1-.88-.12l0-.05a.53.53,0,0,0,.38.65"/><path class="cls-4" d="M19,14.85a3.4,3.4,0,0,0,.73-5.47s-.09,0-.06.06a3.69,3.69,0,0,1-.93,4.88l.07-4.68a.21.21,0,0,0-.08-.16l-.24-.2a.21.21,0,0,0-.26,0l-.25.2a.17.17,0,0,0-.07.16l.07,4.68A3.71,3.71,0,0,1,17,9.44a0,0,0,0,0-.06-.06,3.4,3.4,0,0,0,.73,5.47,3.5,3.5,0,0,1-1.33.21s-.05.07,0,.08a3.4,3.4,0,0,0,1.73.07l.22.42a0,0,0,0,0,.07,0l.22-.42a3.39,3.39,0,0,0,1.73-.07,0,0,0,0,0,0-.08A3.57,3.57,0,0,1,19,14.85"/><path class="cls-4" d="M21.69,10.5A2.88,2.88,0,0,0,20.1,9.14a0,0,0,0,0,0,.07,3.69,3.69,0,0,1,.64,5l-.19.23a2.93,2.93,0,0,0,1.18-4"/><path class="cls-4" d="M15.94,14.24a3.69,3.69,0,0,1,.64-5,0,0,0,0,0,0-.07,2.92,2.92,0,0,0-.4,5.33,2.11,2.11,0,0,1-.19-.23"/></g></g></g></svg>