<svg xmlns="http://www.w3.org/2000/svg" viewBox="0 0 16 16"><defs><style>.cls-1{fill:#fff;}</style></defs><title>setting</title><g id="Layer_2" data-name="Layer 2"><g id="Layer_1-2" data-name="Layer 1"><path class="cls-1" d="M15.19,6.36l-.57-.1a1,1,0,0,1-.74-.63l0,0a1,1,0,0,1,.09-1l.34-.48a1,1,0,0,0-.1-1.26l-1-1a1,1,0,0,0-.7-.3,1,1,0,0,0-.57.19l-.45.32a1,1,0,0,1-1,.09.05.05,0,0,1,0,0A1,1,0,0,1,9.8,1.4L9.71.81a1,1,0,0,0-1-.81H7.25a1,1,0,0,0-1,.81l-.1.59a1,1,0,0,1-.62.75l0,0a1,1,0,0,1-1-.09l-.45-.32a1,1,0,0,0-.57-.19,1,1,0,0,0-.7.3l-1,1a1,1,0,0,0-.09,1.26l.34.48a1,1,0,0,1,.09,1l0,0a1,1,0,0,1-.74.63l-.57.1a1,1,0,0,0-.81,1V8.76a1,1,0,0,0,.81,1l.6.1a1,1,0,0,1,.74.63s0,0,0,0a1,1,0,0,1-.08,1l-.34.46a1,1,0,0,0,.11,1.25l1,1a1,1,0,0,0,.7.29.91.91,0,0,0,.57-.19L4.61,14a1,1,0,0,1,1-.09h0a1,1,0,0,1,.62.75l.1.58a1,1,0,0,0,1,.81H8.72a1,1,0,0,0,1-.81l.1-.58a1,1,0,0,1,.62-.75h0a1,1,0,0,1,1,.09l.48.33a.91.91,0,0,0,.57.19,1,1,0,0,0,.7-.29l1-1a1,1,0,0,0,.11-1.25l-.34-.46a1,1,0,0,1-.08-1s0,0,0,0a1,1,0,0,1,.74-.63l.6-.1a1,1,0,0,0,.81-1V7.32a1,1,0,0,0-.81-1M8,10.67A2.67,2.67,0,1,1,10.67,8,2.67,2.67,0,0,1,8,10.67"/></g></g></svg>